PathFileType	4	(X/Y/Z)	G:\Shared drives\HPL_Drive\Nord Sprinting Study\Kristen_Nord_test\Trimmed_Nord000002.trc
DataRate	CameraRate	NumFrames	NumMarkers	Units	OrigDataRate	OrigDataStartFrame	OrigNumFrames
200.00	200.00	      4	52	mm	200.00	1	      2170
Frame#	Time	C7			R_Shoulder			L_Shoulder			Sternum			R_humerus			R_elbow_med			R_elbow_lat			R_forearm			R_wrist_radius			R_wrist_ulna			L_humerus			L_elbow_med			L_elbow_lat			L_forearm			L_wrist_radius			L_wrist_ulna			r.ASIS			r.PSIS			r_IC			L.ASIS			L.PSIS			l_IC			r_thigh1			r_thigh2			r_thigh3			r_thigh4			r_thigh5			r_knee			r_mknee			r_shank_antsup			r_sh2			r_sh3			r_sh4			r_ankle			r_mankle			r_calc			r_5meta			r_toe			L_thigh1			L_thigh2			L_thigh3			L_thigh4			L_knee			L_mknee			L_shank_antsup			L_sh2			L_sh3			L_ankle			L_mankle			L_calc			L_5meta			L_toe			
		X1	Y1	Z1	X2	Y2	Z2	X3	Y3	Z3	X4	Y4	Z4	X5	Y5	Z5	X6	Y6	Z6	X7	Y7	Z7	X8	Y8	Z8	X9	Y9	Z9	X10	Y10	Z10	X11	Y11	Z11	X12	Y12	Z12	X13	Y13	Z13	X14	Y14	Z14	X15	Y15	Z15	X16	Y16	Z16	X17	Y17	Z17	X18	Y18	Z18	X19	Y19	Z19	X20	Y20	Z20	X21	Y21	Z21	X22	Y22	Z22	X23	Y23	Z23	X24	Y24	Z24	X25	Y25	Z25	X26	Y26	Z26	X27	Y27	Z27	X28	Y28	Z28	X29	Y29	Z29	X30	Y30	Z30	X31	Y31	Z31	X32	Y32	Z32	X33	Y33	Z33	X34	Y34	Z34	X35	Y35	Z35	X36	Y36	Z36	X37	Y37	Z37	X38	Y38	Z38	X39	Y39	Z39	X40	Y40	Z40	X41	Y41	Z41	X42	Y42	Z42	X43	Y43	Z43	X44	Y44	Z44	X45	Y45	Z45	X46	Y46	Z46	X47	Y47	Z47	X48	Y48	Z48	X49	Y49	Z49	X50	Y50	Z50	X51	Y51	Z51	X52	Y52	Z52	

1	0.000	1214.63684	267.19275	1288.31531	1333.09473	324.55920	1298.00586	1082.37195	304.12256	1307.74683	1201.66077	399.90582	1252.54309	1509.92261	312.46994	1270.59961	1638.46155	362.35791	1194.06116	1640.08728	293.23218	1231.18140	1637.61743	339.84418	1353.33472	1605.64575	411.28082	1442.34070	1648.74756	392.78317	1453.35327	883.41925	263.39780	1292.06677	761.25159	305.37924	1227.92847	764.91193	236.44966	1260.60400	800.66565	294.23892	1393.52002	789.85919	351.10287	1473.81775	844.76160	348.57443	1463.49609	1316.52148	426.64087	789.12720	1275.30261	245.56500	852.05054	1357.31140	355.58533	872.06421	1076.76001	408.66602	787.53705	1160.51660	240.02824	846.07813	1055.29663	343.85123	862.95782	1382.84058	393.01053	531.23883	1382.61609	390.66595	416.40817	1396.68457	342.56216	388.95856	1390.97400	285.21155	536.21899	1376.18945	284.01944	417.48697	1382.71582	346.27377	311.13675	1254.19189	332.23956	313.17035	1403.12024	219.51775	295.20245	1385.87427	99.99696	289.69614	1393.20129	214.78683	370.25266	1379.84094	99.43425	372.22937	1367.50171	-73.11772	329.60010	1293.41467	-52.35776	288.84604	1307.71924	-106.70740	374.43701	1393.81958	-133.96791	220.84097	1363.82544	-102.17815	170.23154	1015.75189	380.52188	533.12878	1009.84131	379.95444	392.79312	1017.16803	262.09314	538.89844	1023.42786	266.66412	402.82050	998.88971	312.16507	328.34579	1128.14307	319.80579	305.20667	983.48914	204.22050	305.75696	1010.40851	207.03046	392.61957	1022.71838	86.47446	382.93027	1024.81299	-94.66780	335.86826	1097.70154	-63.55694	292.21799	1081.99353	-117.58504	376.23349	1004.40723	-149.22449	212.01199	1043.18250	-111.35008	162.62881	
2	0.005	1214.55994	267.19434	1288.29895	1333.03552	324.57709	1298.02722	1082.31445	304.17020	1307.73877	1201.61682	399.90439	1252.52893	1509.86792	312.46652	1270.62122	1638.43213	362.32541	1194.07336	1640.04028	293.18356	1231.23132	1637.54004	339.79239	1353.38318	1605.57483	411.25745	1442.36597	1648.67456	392.74121	1453.39172	883.32104	263.51450	1292.02441	761.17651	305.51971	1227.87781	764.81024	236.54460	1260.55103	800.48328	294.41656	1393.53748	789.81305	351.19543	1473.73267	844.68433	348.68167	1463.43945	1316.51318	426.68857	789.12726	1275.25659	245.58849	852.06213	1357.28906	355.62842	872.06317	1076.76746	408.73050	787.50732	1160.48718	240.07639	846.06647	1055.28015	343.91574	862.93713	1382.82056	393.03406	531.25781	1382.63306	390.66696	416.41461	1396.72656	342.58801	388.93378	1390.98755	285.29736	536.24738	1376.19617	284.02615	417.49435	1382.71851	346.28146	311.12234	1254.19714	332.24191	313.17242	1403.09717	219.55806	295.18649	1385.87305	99.98776	289.68512	1393.18616	214.79025	370.22754	1379.82422	99.44238	372.22055	1367.49829	-73.07951	329.53650	1293.37292	-52.34426	288.84241	1307.68555	-106.70466	374.43652	1393.82922	-133.96809	220.84167	1363.82117	-102.19264	170.23056	1015.72662	380.53601	533.12274	1009.81708	379.92810	392.79285	1017.15045	262.15637	538.83801	1023.43933	266.66086	402.82605	998.86993	312.16150	328.34567	1128.18835	319.85849	305.20456	983.59302	204.27301	305.75836	1010.41016	207.02237	392.61005	1022.15784	87.22561	383.09451	1024.78955	-94.67987	335.86462	1097.67249	-63.58110	292.13986	1082.11865	-117.54454	376.16653	1004.37439	-149.21231	212.01047	1041.65137	-111.18134	163.46158	
3	0.010	1214.52161	267.24780	1288.27197	1332.98340	324.57040	1298.03174	1082.24609	304.24966	1307.69788	1201.56006	399.93936	1252.50793	1509.81885	312.44556	1270.60657	1638.38733	362.28009	1194.12622	1639.95898	293.14502	1231.28967	1637.47839	339.76297	1353.40747	1605.51880	411.22754	1442.41797	1648.59106	392.70892	1453.43127	883.26422	263.61044	1291.93811	761.09021	305.63202	1227.79138	764.72656	236.65787	1260.49133	800.35492	294.51587	1393.54492	789.75757	351.29929	1473.67700	844.60468	348.78442	1463.36743	1316.48438	426.74661	789.13190	1275.24365	245.64067	852.06409	1357.26306	355.67441	872.06555	1076.73352	408.77304	787.55597	1160.43311	240.13303	846.11383	1055.25024	343.96835	862.91406	1382.85205	393.05957	531.22418	1382.59668	390.70288	416.42273	1396.70520	342.59311	388.93796	1390.99268	285.31696	536.23743	1376.28040	284.16925	417.34772	1382.74121	346.28552	311.09338	1254.20471	332.24088	313.17517	1403.10901	219.53046	295.17288	1385.88257	100.00785	289.67807	1393.20984	214.80832	370.23730	1379.84875	99.45110	372.21173	1368.11584	-73.17402	330.06589	1293.41858	-52.28246	288.69821	1307.68164	-106.69666	374.35614	1393.81372	-133.94910	220.79996	1363.90308	-102.17081	170.37091	1015.69128	380.57257	533.12463	1009.81403	379.95523	392.75620	1017.17255	262.16229	538.88739	1023.42328	266.73959	402.82916	998.83911	312.16443	328.36200	1128.17163	319.85632	305.21719	983.57404	204.27928	305.66431	1010.41504	207.02800	392.66071	1022.71259	86.46222	382.90186	1024.77722	-94.68203	335.87042	1097.65552	-63.55624	292.20728	1082.01428	-117.56491	376.14041	1004.36859	-149.21895	212.03061	1041.69067	-111.20721	163.37598	
4	0.015	1214.47876	267.28387	1288.26709	1332.92200	324.60843	1298.07275	1082.18335	304.31931	1307.68994	1201.53455	399.98511	1252.51416	1509.75403	312.43372	1270.64612	1638.33691	362.27621	1194.18188	1639.92505	293.12842	1231.26514	1637.40930	339.73001	1353.44690	1605.43481	411.19653	1442.44873	1648.54504	392.64966	1453.43408	883.20770	263.70569	1291.88867	761.02197	305.73532	1227.73315	764.68530	236.79204	1260.37817	800.32019	294.61017	1393.41931	789.68054	351.41757	1473.62073	844.58350	348.87570	1463.28015	1316.46765	426.79068	789.10162	1275.22461	245.67877	852.07477	1357.24268	355.70667	872.04761	1076.76111	408.84900	787.45062	1160.46899	240.17015	846.07123	1055.23828	344.03711	862.89117	1382.79858	393.08554	531.24298	1382.61316	390.69769	416.41724	1396.71252	342.62393	388.93655	1390.98987	285.33658	536.23914	1376.31396	284.19174	417.35739	1382.97144	346.34882	311.23785	1254.17896	332.19943	313.16531	1403.10791	219.55151	295.18170	1385.85291	100.00905	289.66733	1393.17920	214.80963	370.21594	1379.81946	99.44579	372.22678	1367.43762	-73.09405	329.52298	1293.40625	-52.31098	288.73849	1307.66333	-106.68002	374.34396	1393.81970	-133.95451	220.79060	1363.88867	-102.18414	170.14824	1015.71539	380.59140	533.14850	1009.81396	379.98126	392.74536	1017.12891	262.15021	538.82080	1023.41681	266.72092	402.82028	998.87042	312.16223	328.34747	1128.17932	319.87549	305.23138	983.43793	203.97539	305.81226	1010.38867	207.10406	392.62762	1022.71216	86.49617	382.91147	1024.77197	-94.64722	335.84317	1097.71399	-63.56284	292.14066	1081.98206	-117.57435	376.14392	1004.36853	-149.19724	211.96329	1043.28589	-111.34969	162.45796	
